<?xml version="1.0" standalone="no"?>
<!DOCTYPE svg PUBLIC "-//W3C//DTD SVG 20010904//EN"
 "http://www.w3.org/TR/2001/REC-SVG-20010904/DTD/svg10.dtd">
<svg version="1.0" xmlns="http://www.w3.org/2000/svg"
 width="536.000000pt" height="576.000000pt" viewBox="0 0 536.000000 576.000000"
 preserveAspectRatio="xMidYMid meet">

<g transform="translate(0.000000,576.000000) scale(0.100000,-0.100000)"
fill="#000000" stroke="none">
<path d="M3865 5744 c-296 -32 -555 -133 -756 -294 -33 -26 -304 -289 -603
-584 -577 -570 -602 -598 -700 -789 -163 -320 -185 -727 -57 -1075 58 -160
168 -335 282 -452 99 -101 328 -270 365 -270 6 0 58 48 115 108 141 144 163
190 164 328 0 94 -2 105 -32 165 -18 35 -62 98 -98 139 -74 85 -136 201 -159
300 -44 184 4 416 114 549 25 31 149 157 275 281 127 124 250 247 275 274 25
27 153 153 286 281 221 213 248 236 325 274 261 128 582 81 774 -113 82 -83
136 -167 173 -268 23 -64 26 -88 27 -198 0 -106 -4 -136 -25 -200 -45 -140
-105 -212 -478 -580 l-340 -336 20 -49 c21 -54 40 -122 64 -225 21 -96 28
-404 12 -512 -8 -49 -12 -88 -8 -88 15 0 181 159 636 609 550 544 595 597 693
796 97 198 132 350 132 580 -1 225 -39 391 -133 580 -60 121 -109 194 -200
301 -239 284 -594 452 -989 467 -63 3 -132 3 -154 1z"/>
<path d="M2849 3783 c-141 -145 -164 -191 -164 -328 0 -93 2 -105 32 -165 18
-36 62 -99 98 -140 74 -85 136 -201 159 -300 42 -178 -6 -420 -108 -544 -18
-23 -134 -140 -257 -261 -123 -121 -255 -253 -294 -293 -38 -41 -174 -174
-301 -297 -211 -203 -239 -226 -315 -264 -101 -50 -194 -71 -314 -71 -233 0
-426 104 -553 298 -29 43 -64 111 -79 152 -24 66 -27 89 -28 200 0 106 4 136
24 199 47 142 106 214 480 583 334 330 341 337 331 365 -6 15 -15 37 -20 48
-39 84 -70 257 -77 425 -5 132 6 311 23 354 23 59 -70 -27 -642 -593 -550
-544 -596 -597 -693 -796 -97 -198 -132 -350 -132 -580 1 -344 107 -619 344
-894 387 -448 1060 -583 1622 -326 78 36 217 123 279 175 27 22 292 280 589
573 480 474 547 543 607 634 110 163 169 306 211 504 32 154 31 362 -4 524
-71 333 -227 585 -490 788 -87 67 -195 137 -213 137 -6 0 -58 -48 -115 -107z"/>
</g>
</svg>
